M48
; DRILL file {KiCad (5.1.2-1)-1} date Friday, 03 July 2020 at 15:42:04
; FORMAT={-:-/ absolute / metric / decimal}
; #@! TF.CreationDate,2020-07-03T15:42:04-05:00
; #@! TF.GenerationSoftware,Kicad,Pcbnew,(5.1.2-1)-1
; #@! TF.FileFunction,Plated,1,2,PTH
FMAT,2
METRIC
T1C0.800
T2C0.900
T3C1.000
T4C1.100
T5C1.200
T6C1.300
T7C1.600
%
G90
G05
T1
X74.63Y-188.5
X82.25Y-188.5
X175.15Y-159.0
X177.15Y-159.0
X164.5Y-188.5
X172.12Y-188.5
X215.8Y-163.25
X218.3Y-163.25
X56.0Y-159.92
X56.0Y-162.46
X56.0Y-165.0
X189.75Y-188.5
X197.37Y-188.5
X49.5Y-158.5
X49.5Y-166.12
X26.75Y-158.38
X26.75Y-166.0
X29.29Y-158.38
X29.29Y-166.0
X31.83Y-158.38
X31.83Y-166.0
X34.37Y-158.38
X34.37Y-166.0
X36.91Y-158.38
X36.91Y-166.0
X39.45Y-158.38
X39.45Y-166.0
X41.99Y-158.38
X41.99Y-166.0
X34.25Y-190.25
X34.25Y-192.75
X21.25Y-158.25
X23.75Y-158.25
X60.0Y-160.0
X60.0Y-162.54
X60.0Y-165.08
X22.68Y-188.5
X30.3Y-188.5
X66.5Y-158.5
X66.5Y-166.12
X38.0Y-190.25
X38.0Y-192.875
X40.54Y-190.25
X43.08Y-190.25
X43.08Y-192.875
X215.8Y-167.75
X218.3Y-167.75
X201.63Y-188.5
X209.25Y-188.5
X17.75Y-164.5
X19.75Y-164.5
X46.5Y-158.5
X46.5Y-166.12
X160.0Y-192.5
X160.0Y-194.5
T2
X66.5Y-192.0
X66.5Y-194.54
X26.5Y-192.0
X26.5Y-194.54
X168.25Y-192.0
X168.25Y-194.54
X78.5Y-192.0
X78.5Y-194.54
X205.5Y-192.0
X205.5Y-194.54
X54.5Y-192.0
X54.5Y-194.54
X193.5Y-192.0
X193.5Y-194.54
T3
X80.54Y-90.54
X80.54Y-93.08
X80.54Y-95.62
X80.54Y-98.16
X80.54Y-100.7
X80.54Y-103.24
X80.54Y-138.8
X80.54Y-141.34
X80.54Y-143.88
X80.54Y-146.42
X80.54Y-148.96
X80.54Y-151.5
X131.34Y-90.54
X131.34Y-93.08
X131.34Y-95.62
X131.34Y-98.16
X131.34Y-100.7
X131.34Y-103.24
X131.34Y-138.8
X131.34Y-141.34
X131.34Y-143.88
X131.34Y-146.42
X131.34Y-148.96
X131.34Y-151.5
X193.5Y-173.75
X193.5Y-176.29
X193.5Y-178.83
X193.5Y-181.37
X196.04Y-173.75
X196.04Y-176.29
X196.04Y-178.83
X196.04Y-181.37
X196.54Y-90.54
X196.54Y-93.08
X196.54Y-95.62
X196.54Y-98.16
X196.54Y-100.7
X196.54Y-103.24
X196.54Y-138.8
X196.54Y-141.34
X196.54Y-143.88
X196.54Y-146.42
X196.54Y-148.96
X196.54Y-151.5
X247.34Y-90.54
X247.34Y-93.08
X247.34Y-95.62
X247.34Y-98.16
X247.34Y-100.7
X247.34Y-103.24
X247.34Y-138.8
X247.34Y-141.34
X247.34Y-143.88
X247.34Y-146.42
X247.34Y-148.96
X247.34Y-151.5
X240.8Y-191.0
X245.8Y-191.0
X138.54Y-90.54
X138.54Y-93.08
X138.54Y-95.62
X138.54Y-98.16
X138.54Y-100.7
X138.54Y-103.24
X138.54Y-138.8
X138.54Y-141.34
X138.54Y-143.88
X138.54Y-146.42
X138.54Y-148.96
X138.54Y-151.5
X189.34Y-90.54
X189.34Y-93.08
X189.34Y-95.62
X189.34Y-98.16
X189.34Y-100.7
X189.34Y-103.24
X189.34Y-138.8
X189.34Y-141.34
X189.34Y-143.88
X189.34Y-146.42
X189.34Y-148.96
X189.34Y-151.5
X80.54Y-22.54
X80.54Y-25.08
X80.54Y-27.62
X80.54Y-30.16
X80.54Y-32.7
X80.54Y-35.24
X80.54Y-70.8
X80.54Y-73.34
X80.54Y-75.88
X80.54Y-78.42
X80.54Y-80.96
X80.54Y-83.5
X131.34Y-22.54
X131.34Y-25.08
X131.34Y-27.62
X131.34Y-30.16
X131.34Y-32.7
X131.34Y-35.24
X131.34Y-70.8
X131.34Y-73.34
X131.34Y-75.88
X131.34Y-78.42
X131.34Y-80.96
X131.34Y-83.5
X22.54Y-22.54
X22.54Y-25.08
X22.54Y-27.62
X22.54Y-30.16
X22.54Y-32.7
X22.54Y-35.24
X22.54Y-70.8
X22.54Y-73.34
X22.54Y-75.88
X22.54Y-78.42
X22.54Y-80.96
X22.54Y-83.5
X73.34Y-22.54
X73.34Y-25.08
X73.34Y-27.62
X73.34Y-30.16
X73.34Y-32.7
X73.34Y-35.24
X73.34Y-70.8
X73.34Y-73.34
X73.34Y-75.88
X73.34Y-78.42
X73.34Y-80.96
X73.34Y-83.5
X240.8Y-178.0
X245.8Y-178.0
X196.54Y-22.54
X196.54Y-25.08
X196.54Y-27.62
X196.54Y-30.16
X196.54Y-32.7
X196.54Y-35.24
X196.54Y-70.8
X196.54Y-73.34
X196.54Y-75.88
X196.54Y-78.42
X196.54Y-80.96
X196.54Y-83.5
X247.34Y-22.54
X247.34Y-25.08
X247.34Y-27.62
X247.34Y-30.16
X247.34Y-32.7
X247.34Y-35.24
X247.34Y-70.8
X247.34Y-73.34
X247.34Y-75.88
X247.34Y-78.42
X247.34Y-80.96
X247.34Y-83.5
X138.54Y-22.54
X138.54Y-25.08
X138.54Y-27.62
X138.54Y-30.16
X138.54Y-32.7
X138.54Y-35.24
X138.54Y-70.8
X138.54Y-73.34
X138.54Y-75.88
X138.54Y-78.42
X138.54Y-80.96
X138.54Y-83.5
X189.34Y-22.54
X189.34Y-25.08
X189.34Y-27.62
X189.34Y-30.16
X189.34Y-32.7
X189.34Y-35.24
X189.34Y-70.8
X189.34Y-73.34
X189.34Y-75.88
X189.34Y-78.42
X189.34Y-80.96
X189.34Y-83.5
X240.8Y-165.0
X245.8Y-165.0
X22.54Y-90.54
X22.54Y-93.08
X22.54Y-95.62
X22.54Y-98.16
X22.54Y-100.7
X22.54Y-103.24
X22.54Y-138.8
X22.54Y-141.34
X22.54Y-143.88
X22.54Y-146.42
X22.54Y-148.96
X22.54Y-151.5
X73.34Y-90.54
X73.34Y-93.08
X73.34Y-95.62
X73.34Y-98.16
X73.34Y-100.7
X73.34Y-103.24
X73.34Y-138.8
X73.34Y-141.34
X73.34Y-143.88
X73.34Y-146.42
X73.34Y-148.96
X73.34Y-151.5
T4
X120.0Y-174.5
X120.0Y-177.5
X120.0Y-180.5
X192.25Y-160.0
X192.25Y-162.54
X192.25Y-165.08
X12.79Y-169.88
X12.79Y-185.12
X15.33Y-169.88
X15.33Y-185.12
X17.87Y-169.88
X17.87Y-185.12
X20.41Y-169.88
X20.41Y-185.12
X22.95Y-169.88
X22.95Y-185.12
X25.49Y-169.88
X25.49Y-185.12
X28.03Y-169.88
X28.03Y-185.12
X30.57Y-169.88
X30.57Y-185.12
X33.11Y-169.88
X33.11Y-185.12
X35.65Y-169.88
X35.65Y-185.12
X38.19Y-169.88
X38.19Y-185.12
X40.73Y-169.88
X40.73Y-185.12
X43.27Y-169.88
X43.27Y-185.12
X45.81Y-169.88
X45.81Y-185.12
X48.35Y-169.88
X48.35Y-185.12
X50.89Y-169.88
X50.89Y-185.12
X53.43Y-169.88
X53.43Y-185.12
X55.97Y-169.88
X55.97Y-185.12
X58.51Y-169.88
X58.51Y-185.12
X61.05Y-169.88
X61.05Y-185.12
X63.59Y-169.88
X63.59Y-185.12
X66.13Y-169.88
X66.13Y-185.12
X68.67Y-169.88
X68.67Y-185.12
X71.21Y-169.88
X71.21Y-185.12
X181.5Y-159.0
X181.5Y-166.62
X185.25Y-159.0
X185.25Y-166.62
X150.0Y-174.5
X150.0Y-177.5
X150.0Y-180.5
X135.0Y-174.5
X135.0Y-177.5
X135.0Y-180.5
T5
X179.0Y-192.0
X179.0Y-192.0
X182.81Y-192.0
X182.81Y-192.0
T6
X219.8Y-173.0
X219.8Y-178.08
X219.8Y-180.62
X227.42Y-173.0
X227.42Y-178.08
X227.42Y-180.62
T7
X219.8Y-192.25
X227.42Y-192.25
T1
G00X120.75Y-171.65
M15
G01X119.25Y-171.65
M16
G05
G00X120.75Y-183.35
M15
G01X119.25Y-183.35
M16
G05
G00X150.75Y-171.65
M15
G01X149.25Y-171.65
M16
G05
G00X150.75Y-183.35
M15
G01X149.25Y-183.35
M16
G05
G00X135.75Y-171.65
M15
G01X134.25Y-171.65
M16
G05
G00X135.75Y-183.35
M15
G01X134.25Y-183.35
M16
G05
T0
M30
