M48
; DRILL file {KiCad (5.1.2-1)-1} date Saturday, 20 June 2020 at 16:10:33
; FORMAT={-:-/ absolute / metric / decimal}
; #@! TF.CreationDate,2020-06-20T16:10:33-05:00
; #@! TF.GenerationSoftware,Kicad,Pcbnew,(5.1.2-1)-1
; #@! TF.FileFunction,Plated,1,2,PTH
FMAT,2
METRIC
T1C0.800
T2C0.900
T3C1.000
T4C1.100
T5C1.200
T6C1.300
T7C1.600
%
G90
G05
T1
X26.75Y-148.38
X26.75Y-156.0
X29.29Y-148.38
X29.29Y-156.0
X31.83Y-148.38
X31.83Y-156.0
X34.37Y-148.38
X34.37Y-156.0
X36.91Y-148.38
X36.91Y-156.0
X39.45Y-148.38
X39.45Y-156.0
X41.99Y-148.38
X41.99Y-156.0
X155.15Y-152.0
X157.15Y-152.0
X60.0Y-150.0
X60.0Y-152.54
X60.0Y-155.08
X169.75Y-178.5
X177.37Y-178.5
X144.5Y-178.5
X152.12Y-178.5
X140.0Y-182.5
X140.0Y-184.5
X195.3Y-153.25
X197.8Y-153.25
X17.75Y-154.5
X19.75Y-154.5
X38.0Y-180.25
X38.0Y-182.875
X40.54Y-180.25
X43.08Y-180.25
X43.08Y-182.875
X34.25Y-180.25
X34.25Y-182.75
X46.5Y-148.5
X46.5Y-156.12
X66.5Y-148.5
X66.5Y-156.12
X49.5Y-148.5
X49.5Y-156.12
X22.68Y-178.5
X30.3Y-178.5
X21.25Y-148.25
X23.75Y-148.25
X56.0Y-149.92
X56.0Y-152.46
X56.0Y-155.0
X74.63Y-178.5
X82.25Y-178.5
X181.63Y-178.5
X189.25Y-178.5
X195.3Y-157.75
X197.8Y-157.75
T2
X66.5Y-182.0
X66.5Y-184.54
X185.5Y-182.0
X185.5Y-184.54
X78.5Y-182.0
X78.5Y-184.54
X173.5Y-182.0
X173.5Y-184.54
X54.5Y-182.0
X54.5Y-184.54
X26.5Y-182.0
X26.5Y-184.54
X148.25Y-182.0
X148.25Y-184.54
T3
X220.8Y-168.0
X225.8Y-168.0
X180.89Y-23.54
X180.89Y-26.08
X180.89Y-28.62
X180.89Y-31.16
X180.89Y-33.7
X180.89Y-36.24
X180.89Y-66.72
X180.89Y-69.26
X180.89Y-71.8
X180.89Y-74.34
X180.89Y-76.88
X180.89Y-79.42
X226.61Y-23.54
X226.61Y-26.08
X226.61Y-28.62
X226.61Y-31.16
X226.61Y-33.7
X226.61Y-36.24
X226.61Y-66.72
X226.61Y-69.26
X226.61Y-71.8
X226.61Y-74.34
X226.61Y-76.88
X226.61Y-79.42
X173.5Y-166.0
X173.5Y-168.54
X173.5Y-171.08
X173.5Y-173.62
X176.04Y-166.0
X176.04Y-168.54
X176.04Y-171.08
X176.04Y-173.62
X75.89Y-87.54
X75.89Y-90.08
X75.89Y-92.62
X75.89Y-95.16
X75.89Y-97.7
X75.89Y-100.24
X75.89Y-130.72
X75.89Y-133.26
X75.89Y-135.8
X75.89Y-138.34
X75.89Y-140.88
X75.89Y-143.42
X121.61Y-87.54
X121.61Y-90.08
X121.61Y-92.62
X121.61Y-95.16
X121.61Y-97.7
X121.61Y-100.24
X121.61Y-130.72
X121.61Y-133.26
X121.61Y-135.8
X121.61Y-138.34
X121.61Y-140.88
X121.61Y-143.42
X220.8Y-181.0
X225.8Y-181.0
X23.39Y-23.54
X23.39Y-26.08
X23.39Y-28.62
X23.39Y-31.16
X23.39Y-33.7
X23.39Y-36.24
X23.39Y-66.72
X23.39Y-69.26
X23.39Y-71.8
X23.39Y-74.34
X23.39Y-76.88
X23.39Y-79.42
X69.11Y-23.54
X69.11Y-26.08
X69.11Y-28.62
X69.11Y-31.16
X69.11Y-33.7
X69.11Y-36.24
X69.11Y-66.72
X69.11Y-69.26
X69.11Y-71.8
X69.11Y-74.34
X69.11Y-76.88
X69.11Y-79.42
X180.89Y-87.54
X180.89Y-90.08
X180.89Y-92.62
X180.89Y-95.16
X180.89Y-97.7
X180.89Y-100.24
X180.89Y-130.72
X180.89Y-133.26
X180.89Y-135.8
X180.89Y-138.34
X180.89Y-140.88
X180.89Y-143.42
X226.61Y-87.54
X226.61Y-90.08
X226.61Y-92.62
X226.61Y-95.16
X226.61Y-97.7
X226.61Y-100.24
X226.61Y-130.72
X226.61Y-133.26
X226.61Y-135.8
X226.61Y-138.34
X226.61Y-140.88
X226.61Y-143.42
X128.39Y-87.54
X128.39Y-90.08
X128.39Y-92.62
X128.39Y-95.16
X128.39Y-97.7
X128.39Y-100.24
X128.39Y-130.72
X128.39Y-133.26
X128.39Y-135.8
X128.39Y-138.34
X128.39Y-140.88
X128.39Y-143.42
X174.11Y-87.54
X174.11Y-90.08
X174.11Y-92.62
X174.11Y-95.16
X174.11Y-97.7
X174.11Y-100.24
X174.11Y-130.72
X174.11Y-133.26
X174.11Y-135.8
X174.11Y-138.34
X174.11Y-140.88
X174.11Y-143.42
X23.39Y-87.54
X23.39Y-90.08
X23.39Y-92.62
X23.39Y-95.16
X23.39Y-97.7
X23.39Y-100.24
X23.39Y-130.72
X23.39Y-133.26
X23.39Y-135.8
X23.39Y-138.34
X23.39Y-140.88
X23.39Y-143.42
X69.11Y-87.54
X69.11Y-90.08
X69.11Y-92.62
X69.11Y-95.16
X69.11Y-97.7
X69.11Y-100.24
X69.11Y-130.72
X69.11Y-133.26
X69.11Y-135.8
X69.11Y-138.34
X69.11Y-140.88
X69.11Y-143.42
X75.89Y-23.54
X75.89Y-26.08
X75.89Y-28.62
X75.89Y-31.16
X75.89Y-33.7
X75.89Y-36.24
X75.89Y-66.72
X75.89Y-69.26
X75.89Y-71.8
X75.89Y-74.34
X75.89Y-76.88
X75.89Y-79.42
X121.61Y-23.54
X121.61Y-26.08
X121.61Y-28.62
X121.61Y-31.16
X121.61Y-33.7
X121.61Y-36.24
X121.61Y-66.72
X121.61Y-69.26
X121.61Y-71.8
X121.61Y-74.34
X121.61Y-76.88
X121.61Y-79.42
X220.8Y-155.0
X225.8Y-155.0
X128.39Y-23.54
X128.39Y-26.08
X128.39Y-28.62
X128.39Y-31.16
X128.39Y-33.7
X128.39Y-36.24
X128.39Y-66.72
X128.39Y-69.26
X128.39Y-71.8
X128.39Y-74.34
X128.39Y-76.88
X128.39Y-79.42
X174.11Y-23.54
X174.11Y-26.08
X174.11Y-28.62
X174.11Y-31.16
X174.11Y-33.7
X174.11Y-36.24
X174.11Y-66.72
X174.11Y-69.26
X174.11Y-71.8
X174.11Y-74.34
X174.11Y-76.88
X174.11Y-79.42
T4
X172.25Y-153.0
X172.25Y-155.54
X172.25Y-158.08
X165.25Y-152.0
X165.25Y-159.62
X125.0Y-160.5
X125.0Y-163.5
X125.0Y-166.5
X140.0Y-160.5
X140.0Y-163.5
X140.0Y-166.5
X12.79Y-159.88
X12.79Y-175.12
X15.33Y-159.88
X15.33Y-175.12
X17.87Y-159.88
X17.87Y-175.12
X20.41Y-159.88
X20.41Y-175.12
X22.95Y-159.88
X22.95Y-175.12
X25.49Y-159.88
X25.49Y-175.12
X28.03Y-159.88
X28.03Y-175.12
X30.57Y-159.88
X30.57Y-175.12
X33.11Y-159.88
X33.11Y-175.12
X35.65Y-159.88
X35.65Y-175.12
X38.19Y-159.88
X38.19Y-175.12
X40.73Y-159.88
X40.73Y-175.12
X43.27Y-159.88
X43.27Y-175.12
X45.81Y-159.88
X45.81Y-175.12
X48.35Y-159.88
X48.35Y-175.12
X50.89Y-159.88
X50.89Y-175.12
X53.43Y-159.88
X53.43Y-175.12
X55.97Y-159.88
X55.97Y-175.12
X58.51Y-159.88
X58.51Y-175.12
X61.05Y-159.88
X61.05Y-175.12
X63.59Y-159.88
X63.59Y-175.12
X66.13Y-159.88
X66.13Y-175.12
X68.67Y-159.88
X68.67Y-175.12
X71.21Y-159.88
X71.21Y-175.12
X161.5Y-152.0
X161.5Y-159.62
X110.0Y-160.5
X110.0Y-163.5
X110.0Y-166.5
T5
X159.0Y-182.0
X159.0Y-182.0
X162.81Y-182.0
X162.81Y-182.0
T6
X199.8Y-163.0
X199.8Y-168.08
X199.8Y-170.62
X207.42Y-163.0
X207.42Y-168.08
X207.42Y-170.62
T7
X199.8Y-182.25
X207.42Y-182.25
T1
G00X110.75Y-157.65
M15
G01X109.25Y-157.65
M16
G05
G00X110.75Y-169.35
M15
G01X109.25Y-169.35
M16
G05
G00X125.75Y-157.65
M15
G01X124.25Y-157.65
M16
G05
G00X125.75Y-169.35
M15
G01X124.25Y-169.35
M16
G05
G00X140.75Y-157.65
M15
G01X139.25Y-157.65
M16
G05
G00X140.75Y-169.35
M15
G01X139.25Y-169.35
M16
G05
T0
M30
